<svg width="204" height="16" viewBox="0 0 204 16" fill="none" xmlns="http://www.w3.org/2000/svg">
<path d="M2.336 12.032C2.06933 11.936 1.78133 11.8347 1.472 11.728C1.17333 11.6107 0.917333 11.4987 0.704 11.392C0.490667 11.2853 0.384 11.2107 0.384 11.168C0.384 11.1253 0.421333 10.944 0.496 10.624C0.581333 10.2933 0.688 9.87733 0.816 9.376C0.954667 8.864 1.09867 8.30933 1.248 7.712C1.408 7.11467 1.568 6.52267 1.728 5.936C1.888 5.33867 2.03733 4.79467 2.176 4.304C2.31467 3.80267 2.42667 3.40267 2.512 3.104H1.68L0.96 2.032L1.056 1.776H4.352L5.28 3.12C5.408 3.64267 5.54133 4.23467 5.68 4.896C5.81867 5.54667 5.95733 6.21333 6.096 6.896C6.23467 7.568 6.36267 8.192 6.48 8.768C6.59733 9.344 6.69333 9.824 6.768 10.208C6.84267 10.592 6.88533 10.8107 6.896 10.864C6.91733 11.0027 6.976 11.1093 7.072 11.184C7.168 11.2587 7.33867 11.36 7.584 11.488L7.392 12C7.072 11.8933 6.752 11.7707 6.432 11.632C6.12267 11.4933 5.86667 11.36 5.664 11.232C5.46133 11.104 5.35467 11.0133 5.344 10.96C5.312 10.6187 5.27467 10.272 5.232 9.92C5.18933 9.55733 5.14133 9.2 5.088 8.848C4.992 8.83733 4.896 8.832 4.8 8.832C4.416 8.832 4.016 8.87467 3.6 8.96C3.184 9.04533 2.80533 9.2 2.464 9.424C2.38933 9.72267 2.30933 10.0267 2.224 10.336C2.14933 10.6453 2.07467 10.9547 2 11.264L2.528 11.52L2.336 12.032ZM3.696 7.536C4.12267 7.536 4.53867 7.65333 4.944 7.888C4.816 7.03467 4.672 6.208 4.512 5.408C4.36267 4.59733 4.22933 3.87733 4.112 3.248C3.96267 3.792 3.78667 4.432 3.584 5.168C3.392 5.904 3.17867 6.72 2.944 7.616C3.2 7.56267 3.45067 7.536 3.696 7.536ZM8.914 3.04L7.858 1.904V1.744C8.146 1.36 8.53533 1.024 9.026 0.735999L10.082 1.84L10.066 2.032C9.85267 2.18133 9.65 2.34667 9.458 2.528C9.27667 2.70933 9.09533 2.88 8.914 3.04ZM8.882 14.896C8.60467 14.896 8.274 14.7947 7.89 14.592C7.51667 14.3893 7.186 14.1867 6.898 13.984L7.154 13.568C7.29267 13.6427 7.40467 13.7067 7.49 13.76C7.586 13.8133 7.68733 13.84 7.794 13.84C7.90067 13.84 7.99133 13.7973 8.066 13.712C8.15133 13.6373 8.22067 13.488 8.274 13.264C8.32733 13.04 8.354 12.704 8.354 12.256V6.864C8.354 6.58667 8.36467 6.33067 8.386 6.096C8.418 5.85067 8.466 5.63733 8.53 5.456H8.002L7.154 4.368L7.266 4.096H9.314L10.242 5.344C10.114 5.51467 10.0287 5.728 9.986 5.984C9.954 6.24 9.938 6.56533 9.938 6.96V12.432C9.938 13.168 9.85267 13.76 9.682 14.208C9.51133 14.6667 9.24467 14.896 8.882 14.896ZM14.7604 11.92C14.5044 11.92 14.195 11.856 13.8324 11.728C13.4697 11.6 13.1177 11.4293 12.7764 11.216C12.435 11.0027 12.147 10.7573 11.9124 10.48C11.6884 10.2027 11.5764 9.92 11.5764 9.632C11.5764 9.504 11.5924 9.13067 11.6244 8.512C11.667 7.89333 11.6884 7.12 11.6884 6.192C11.6884 5.44533 11.907 4.896 12.3444 4.544C12.7817 4.192 13.4377 4.016 14.3124 4.016C14.5684 4.016 14.851 4.096 15.1604 4.256C15.4804 4.416 15.7844 4.624 16.0724 4.88C16.3604 5.136 16.595 5.408 16.7764 5.696C16.9684 5.97333 17.0644 6.23467 17.0644 6.48C17.0644 6.88533 17.0537 7.32267 17.0324 7.792C17.0217 8.26133 17.0164 8.864 17.0164 9.6C17.0164 10.2827 16.8297 10.8427 16.4564 11.28C16.083 11.7067 15.5177 11.92 14.7604 11.92ZM13.7364 10.56C14.323 10.56 14.7497 10.4373 15.0164 10.192C15.2937 9.94667 15.4324 9.584 15.4324 9.104C15.4324 8.76267 15.4377 8.37867 15.4484 7.952C15.459 7.51467 15.4697 7.11467 15.4804 6.752C15.491 6.37867 15.4964 6.11733 15.4964 5.968C15.4964 5.78667 15.4644 5.65333 15.4004 5.568C15.3364 5.472 15.2084 5.424 15.0164 5.424C14.4404 5.424 13.9977 5.52533 13.6884 5.728C13.3897 5.92 13.2404 6.288 13.2404 6.832C13.2404 7.856 13.2297 8.62933 13.2084 9.152C13.187 9.664 13.1764 10.0107 13.1764 10.192C13.1764 10.4373 13.363 10.56 13.7364 10.56ZM24.3923 11.952C24.1469 11.856 23.9229 11.7547 23.7203 11.648C23.5176 11.5413 23.3256 11.424 23.1443 11.296C22.9203 11.4773 22.6536 11.6267 22.3443 11.744C22.0349 11.8613 21.7469 11.92 21.4803 11.92C21.2883 11.92 21.0269 11.856 20.6963 11.728C20.3656 11.6 20.0296 11.4293 19.6883 11.216C19.3469 11.0027 19.0589 10.7733 18.8243 10.528C18.5896 10.272 18.4723 10.0267 18.4723 9.792C18.4723 9.632 18.4829 9.376 18.5043 9.024C18.5363 8.66133 18.5523 8.25067 18.5523 7.792V6.864C18.5523 6.58667 18.5629 6.33067 18.5843 6.096C18.6163 5.85067 18.6643 5.63733 18.7283 5.456H18.2003L17.3522 4.368L17.4642 4.096H19.5123L20.4403 5.344C20.3123 5.51467 20.2269 5.728 20.1843 5.984C20.1523 6.24 20.1363 6.56533 20.1363 6.96V7.904C20.1363 8.608 20.1256 9.12 20.1043 9.44C20.0936 9.76 20.0883 9.984 20.0883 10.112C20.0883 10.4107 20.2696 10.56 20.6323 10.56C20.8989 10.56 21.1549 10.512 21.4003 10.416C21.6563 10.3093 21.8643 10.16 22.0243 9.968C22.1949 9.76533 22.2803 9.52533 22.2803 9.248V6.864C22.2803 6.58667 22.2909 6.33067 22.3123 6.096C22.3443 5.85067 22.3923 5.63733 22.4563 5.456H21.9283L21.0803 4.368L21.1923 4.096H23.2403L24.1683 5.344C24.0403 5.51467 23.9549 5.728 23.9123 5.984C23.8803 6.24 23.8643 6.56533 23.8643 6.96V8.672C23.8643 9.25867 23.8536 9.70133 23.8323 10C23.8109 10.2987 23.8003 10.5173 23.8003 10.656C23.8003 10.8267 23.8589 10.9813 23.9763 11.12C24.1043 11.248 24.3123 11.3867 24.6003 11.536L24.3923 11.952ZM28.2365 11.872C28.0765 11.872 27.8578 11.8133 27.5805 11.696C27.3032 11.568 27.0205 11.408 26.7325 11.216C26.4445 11.0133 26.1992 10.8053 25.9965 10.592C25.7938 10.368 25.6925 10.1547 25.6925 9.952C25.6925 9.83467 25.6978 9.712 25.7085 9.584C25.7192 9.456 25.7352 9.29067 25.7565 9.088C25.7778 8.87467 25.7938 8.592 25.8045 8.24C25.8152 7.888 25.8205 7.42933 25.8205 6.864C25.8205 6.65067 25.8205 6.42667 25.8205 6.192C25.8205 5.95733 25.8152 5.712 25.8045 5.456H25.5165L24.7005 4.384L24.8125 4.128C25.3778 4.064 25.7352 3.89333 25.8845 3.616C26.0338 3.33867 26.1085 2.91733 26.1085 2.352L26.3805 2.256L27.3565 2.992C27.3565 3.184 27.3565 3.37067 27.3565 3.552C27.3565 3.73333 27.3565 3.91467 27.3565 4.096H28.7165L29.5165 5.216L29.4045 5.456H27.3725C27.3725 5.84 27.3725 6.208 27.3725 6.56C27.3725 6.912 27.3725 7.248 27.3725 7.568C27.3725 8.18667 27.3618 8.66133 27.3405 8.992C27.3298 9.32267 27.3138 9.568 27.2925 9.728C27.2712 9.888 27.2605 10.0373 27.2605 10.176C27.2605 10.3893 27.3725 10.496 27.5965 10.496C27.7885 10.496 27.9965 10.448 28.2205 10.352C28.4445 10.2453 28.6525 10.1173 28.8445 9.968H29.0685L29.8205 11.216C29.6712 11.3973 29.4365 11.552 29.1165 11.68C28.7965 11.808 28.5032 11.872 28.2365 11.872ZM33.7016 11.888C33.4456 11.888 33.131 11.824 32.7576 11.696C32.3843 11.5573 32.011 11.3813 31.6376 11.168C31.275 10.944 30.971 10.704 30.7256 10.448C30.4803 10.1813 30.3576 9.92 30.3576 9.664C30.3576 9.408 30.3736 8.96533 30.4056 8.336C30.4483 7.70667 30.4696 6.95467 30.4696 6.08C30.4696 4.69333 31.227 4 32.7416 4C32.9763 4 33.2483 4.07467 33.5576 4.224C33.867 4.36267 34.1656 4.54933 34.4536 4.784C34.7416 5.008 34.9816 5.24267 35.1736 5.488C35.3656 5.73333 35.4616 5.96267 35.4616 6.176V7.488C35.4616 8.352 34.9816 8.784 34.0216 8.784C33.723 8.784 33.3816 8.768 32.9976 8.736C32.6136 8.69333 32.2723 8.64533 31.9736 8.592C31.963 8.944 31.9523 9.264 31.9416 9.552C31.9416 9.82933 31.9416 9.98933 31.9416 10.032C31.9416 10.2027 31.9843 10.3253 32.0696 10.4C32.155 10.4747 32.3096 10.512 32.5336 10.512C32.8643 10.512 33.2216 10.464 33.6056 10.368C34.0003 10.2613 34.3523 10.1067 34.6616 9.904H34.9016L35.7656 11.216C35.563 11.408 35.259 11.568 34.8536 11.696C34.459 11.824 34.075 11.888 33.7016 11.888ZM32.0216 6.592C32.0216 6.67733 32.0163 6.80533 32.0056 6.976C32.0056 7.14667 32.0056 7.33867 32.0056 7.552C32.315 7.584 32.6723 7.6 33.0776 7.6C33.387 7.6 33.6003 7.52533 33.7176 7.376C33.8456 7.216 33.9096 6.976 33.9096 6.656V5.792C33.9096 5.67467 33.8776 5.57333 33.8136 5.488C33.7496 5.40267 33.611 5.36 33.3976 5.36C32.971 5.36 32.635 5.45067 32.3896 5.632C32.1443 5.80267 32.0216 6.12267 32.0216 6.592ZM39.5985 12.144C38.6812 11.8453 38.0198 11.5893 37.6145 11.376C37.2092 11.152 37.0065 10.992 37.0065 10.896C37.0065 10.7787 37.0225 10.576 37.0545 10.288C37.0972 10 37.1185 9.552 37.1185 8.944V6.96C37.1185 6.74667 37.1292 6.496 37.1505 6.208C37.1718 5.90933 37.2038 5.65867 37.2465 5.456H36.6545L35.8225 4.352L35.9345 4.096H37.4385C37.4918 4.096 37.5878 4.176 37.7265 4.336C37.8758 4.48533 38.0252 4.65067 38.1745 4.832C38.3452 4.55467 38.5798 4.352 38.8785 4.224C39.1878 4.096 39.5132 4.032 39.8545 4.032C40.0252 4.032 40.1532 4.04267 40.2385 4.064L41.0385 5.184L40.9105 5.376C40.1638 5.36533 39.6092 5.50933 39.2465 5.808C38.8838 6.10667 38.7025 6.656 38.7025 7.456V9.168C38.7025 9.70133 38.6865 10.1173 38.6545 10.416C38.6332 10.704 38.6225 10.896 38.6225 10.992C38.6225 11.056 38.6438 11.1147 38.6865 11.168C38.7292 11.2107 38.8305 11.264 38.9905 11.328C39.1612 11.392 39.4278 11.4987 39.7905 11.648L39.5985 12.144ZM45.7245 12.032C45.0418 11.776 44.5138 11.5467 44.1405 11.344C43.7778 11.1307 43.5965 10.9387 43.5965 10.768C43.5965 10.6187 43.6125 10.3893 43.6445 10.08C43.6872 9.76 43.7085 9.45067 43.7085 9.152V4.848C43.7085 4.208 43.7298 3.62133 43.7725 3.088C43.8258 2.544 43.8898 2.10667 43.9645 1.776H43.2765L42.3965 0.735999L42.5085 0.48H44.5885L45.5325 1.696C45.4578 2.112 45.3992 2.58667 45.3565 3.12C45.3138 3.64267 45.2925 4.176 45.2925 4.72V9.328C45.2925 9.712 45.2765 10.0533 45.2445 10.352C45.2125 10.64 45.1965 10.8587 45.1965 11.008C45.1965 11.1147 45.2338 11.2 45.3085 11.264C45.3938 11.3173 45.5965 11.4293 45.9165 11.6L45.7245 12.032ZM50.0923 11.888C49.8363 11.888 49.5216 11.824 49.1483 11.696C48.7749 11.5573 48.4016 11.3813 48.0283 11.168C47.6656 10.944 47.3616 10.704 47.1163 10.448C46.8709 10.1813 46.7483 9.92 46.7483 9.664C46.7483 9.408 46.7643 8.96533 46.7963 8.336C46.8389 7.70667 46.8603 6.95467 46.8603 6.08C46.8603 4.69333 47.6176 4 49.1323 4C49.3669 4 49.6389 4.07467 49.9483 4.224C50.2576 4.36267 50.5563 4.54933 50.8443 4.784C51.1323 5.008 51.3723 5.24267 51.5643 5.488C51.7563 5.73333 51.8523 5.96267 51.8523 6.176V7.488C51.8523 8.352 51.3723 8.784 50.4123 8.784C50.1136 8.784 49.7723 8.768 49.3883 8.736C49.0043 8.69333 48.6629 8.64533 48.3643 8.592C48.3536 8.944 48.3429 9.264 48.3323 9.552C48.3323 9.82933 48.3323 9.98933 48.3323 10.032C48.3323 10.2027 48.3749 10.3253 48.4603 10.4C48.5456 10.4747 48.7003 10.512 48.9243 10.512C49.2549 10.512 49.6123 10.464 49.9963 10.368C50.3909 10.2613 50.7429 10.1067 51.0523 9.904H51.2923L52.1563 11.216C51.9536 11.408 51.6496 11.568 51.2443 11.696C50.8496 11.824 50.4656 11.888 50.0923 11.888ZM48.4123 6.592C48.4123 6.67733 48.4069 6.80533 48.3963 6.976C48.3963 7.14667 48.3963 7.33867 48.3963 7.552C48.7056 7.584 49.0629 7.6 49.4683 7.6C49.7776 7.6 49.9909 7.52533 50.1083 7.376C50.2363 7.216 50.3003 6.976 50.3003 6.656V5.792C50.3003 5.67467 50.2683 5.57333 50.2043 5.488C50.1403 5.40267 50.0016 5.36 49.7883 5.36C49.3616 5.36 49.0256 5.45067 48.7803 5.632C48.5349 5.80267 48.4123 6.12267 48.4123 6.592ZM55.7331 11.952C54.9225 11.952 54.2878 11.6907 53.8291 11.168C53.3705 10.6347 53.0505 9.91467 52.8691 9.008L53.3811 8.864C53.5838 9.376 53.8131 9.73867 54.0691 9.952C54.3358 10.1653 54.6931 10.272 55.1411 10.272C55.6531 10.272 56.0851 10.128 56.4371 9.84C56.7998 9.552 56.9811 9.2 56.9811 8.784C56.9811 8.54933 56.8958 8.432 56.7251 8.432C56.5865 8.432 56.3838 8.464 56.1171 8.528C55.8611 8.592 55.6051 8.66133 55.3491 8.736C55.0931 8.8 54.9011 8.832 54.7731 8.832C54.5811 8.832 54.3838 8.74133 54.1811 8.56C53.9891 8.37867 53.8078 8.14933 53.6371 7.872C53.4665 7.584 53.3278 7.28533 53.2211 6.976C53.1145 6.66667 53.0611 6.37867 53.0611 6.112C53.0611 5.48267 53.2585 4.95467 53.6531 4.528C54.0585 4.10133 54.6345 3.888 55.3811 3.888C56.0211 3.888 56.5438 4.05867 56.9491 4.4C57.3545 4.74133 57.6638 5.264 57.8771 5.968L57.3171 6.16C57.0291 5.70133 56.5918 5.472 56.0051 5.472C55.4931 5.472 55.0611 5.60533 54.7091 5.872C54.3571 6.13867 54.1811 6.47467 54.1811 6.88C54.1811 7.09333 54.2825 7.2 54.4851 7.2C54.6451 7.2 54.8531 7.168 55.1091 7.104C55.3651 7.02933 55.6211 6.96 55.8771 6.896C56.1331 6.832 56.3411 6.8 56.5011 6.8C56.7465 6.8 56.9865 6.93867 57.2211 7.216C57.4558 7.49333 57.6478 7.84533 57.7971 8.272C57.9465 8.69867 58.0211 9.136 58.0211 9.584C58.0211 10.2987 57.8238 10.8747 57.4291 11.312C57.0345 11.7387 56.4691 11.952 55.7331 11.952ZM62.3541 3.024L61.2981 1.888V1.728C61.5861 1.344 61.9755 1.008 62.4661 0.719999L63.5221 1.824L63.5061 2.016C63.2928 2.16533 63.0901 2.33067 62.8981 2.512C62.7168 2.69333 62.5355 2.864 62.3541 3.024ZM63.7781 12.032C63.0955 11.776 62.5675 11.5467 62.1941 11.344C61.8315 11.1307 61.6501 10.9387 61.6501 10.768C61.6501 10.6187 61.6661 10.3893 61.6981 10.08C61.7408 9.76 61.7621 9.45067 61.7621 9.152V6.864C61.7621 6.58667 61.7728 6.33067 61.7941 6.096C61.8261 5.85067 61.8741 5.63733 61.9381 5.456H61.4101L60.5621 4.368L60.6741 4.096H62.7221L63.6501 5.344C63.5221 5.51467 63.4368 5.728 63.3941 5.984C63.3621 6.24 63.3461 6.56533 63.3461 6.96V9.328C63.3461 9.712 63.3301 10.0533 63.2981 10.352C63.2661 10.64 63.2501 10.8587 63.2501 11.008C63.2501 11.1147 63.2875 11.2 63.3621 11.264C63.4475 11.3173 63.6501 11.4293 63.9701 11.6L63.7781 12.032ZM67.4463 12C66.7636 11.744 66.2356 11.5147 65.8623 11.312C65.4996 11.0987 65.3183 10.9067 65.3183 10.736C65.3183 10.5867 65.3343 10.3573 65.3663 10.048C65.4089 9.728 65.4303 9.41867 65.4303 9.12V7.072C65.4303 6.85867 65.4356 6.592 65.4463 6.272C65.4676 5.952 65.5049 5.68 65.5583 5.456H64.9663L64.1342 4.352L64.2462 4.096H65.7503C65.7929 4.096 65.8836 4.17067 66.0223 4.32C66.1716 4.45867 66.3209 4.61867 66.4703 4.8C66.6729 4.52267 66.9236 4.32 67.2223 4.192C67.5316 4.05333 67.8303 3.984 68.1183 3.984H68.4543C68.6676 3.984 68.9023 4.06933 69.1583 4.24C69.4249 4.41067 69.6809 4.61867 69.9263 4.864C70.1823 5.10933 70.3903 5.35467 70.5503 5.6C70.7103 5.83467 70.7903 6.02667 70.7903 6.176C70.7903 6.44267 70.7796 6.77333 70.7583 7.168C70.7369 7.56267 70.7263 7.88267 70.7263 8.128V9.296C70.7263 9.68 70.7103 10.0213 70.6783 10.32C70.6463 10.608 70.6303 10.8267 70.6303 10.976C70.6303 11.0827 70.6676 11.168 70.7423 11.232C70.8276 11.2853 71.0303 11.3973 71.3503 11.568L71.1583 12C70.4756 11.744 69.9476 11.5147 69.5743 11.312C69.2116 11.0987 69.0303 10.9067 69.0303 10.736C69.0303 10.5867 69.0463 10.3573 69.0783 10.048C69.1209 9.728 69.1423 9.41867 69.1423 9.12V8.288C69.1423 7.94667 69.1529 7.55733 69.1743 7.12C69.1956 6.68267 69.2063 6.29867 69.2063 5.968C69.2063 5.75467 69.1796 5.61067 69.1263 5.536C69.0729 5.46133 68.9556 5.424 68.7743 5.424C68.1769 5.424 67.7343 5.57867 67.4463 5.888C67.1583 6.18667 67.0143 6.60267 67.0143 7.136V9.296C67.0143 9.68 66.9983 10.0213 66.9663 10.32C66.9343 10.608 66.9183 10.8267 66.9183 10.976C66.9183 11.0827 66.9556 11.168 67.0303 11.232C67.1156 11.2853 67.3183 11.3973 67.6383 11.568L67.4463 12ZM74.7294 12.048C74.0894 11.824 73.572 11.6 73.1774 11.376C72.7827 11.152 72.5854 10.9547 72.5854 10.784C72.5854 10.6347 72.6067 10.416 72.6494 10.128C72.692 9.84 72.7134 9.54667 72.7134 9.248V7.216C72.7134 6.81067 72.724 6.47467 72.7454 6.208C72.7667 5.93067 72.8094 5.68 72.8734 5.456H72.1534L71.2414 4.368L71.3534 4.096H73.1774C73.0174 3.91467 72.8627 3.68533 72.7134 3.408C72.5747 3.12 72.5054 2.8 72.5054 2.448C72.5054 1.92533 72.676 1.49333 73.0174 1.152C73.3587 0.810666 73.892 0.639999 74.6174 0.639999C75.012 0.639999 75.3534 0.704 75.6414 0.832L76.3934 2.112L76.2174 2.32C76.1107 2.288 75.9667 2.26133 75.7854 2.24C75.6147 2.208 75.4014 2.192 75.1454 2.192C74.7294 2.192 74.404 2.272 74.1694 2.432C73.9347 2.592 73.8174 2.84267 73.8174 3.184C73.8174 3.54667 73.9347 3.85067 74.1694 4.096H75.6094L76.4574 5.216L76.3134 5.456H74.4734C74.3987 5.65867 74.3507 5.92 74.3294 6.24C74.308 6.54933 74.2974 6.928 74.2974 7.376V9.424C74.2974 9.808 74.2814 10.1333 74.2494 10.4C74.2174 10.6667 74.2014 10.8747 74.2014 11.024C74.2014 11.1307 74.244 11.2213 74.3294 11.296C74.4147 11.36 74.6227 11.4667 74.9534 11.616L74.7294 12.048ZM79.8385 11.92C79.5825 11.92 79.2732 11.856 78.9105 11.728C78.5478 11.6 78.1958 11.4293 77.8545 11.216C77.5132 11.0027 77.2252 10.7573 76.9905 10.48C76.7665 10.2027 76.6545 9.92 76.6545 9.632C76.6545 9.504 76.6705 9.13067 76.7025 8.512C76.7452 7.89333 76.7665 7.12 76.7665 6.192C76.7665 5.44533 76.9852 4.896 77.4225 4.544C77.8598 4.192 78.5158 4.016 79.3905 4.016C79.6465 4.016 79.9292 4.096 80.2385 4.256C80.5585 4.416 80.8625 4.624 81.1505 4.88C81.4385 5.136 81.6732 5.408 81.8545 5.696C82.0465 5.97333 82.1425 6.23467 82.1425 6.48C82.1425 6.88533 82.1318 7.32267 82.1105 7.792C82.0998 8.26133 82.0945 8.864 82.0945 9.6C82.0945 10.2827 81.9078 10.8427 81.5345 11.28C81.1612 11.7067 80.5958 11.92 79.8385 11.92ZM78.8145 10.56C79.4012 10.56 79.8278 10.4373 80.0945 10.192C80.3718 9.94667 80.5105 9.584 80.5105 9.104C80.5105 8.76267 80.5158 8.37867 80.5265 7.952C80.5372 7.51467 80.5478 7.11467 80.5585 6.752C80.5692 6.37867 80.5745 6.11733 80.5745 5.968C80.5745 5.78667 80.5425 5.65333 80.4785 5.568C80.4145 5.472 80.2865 5.424 80.0945 5.424C79.5185 5.424 79.0758 5.52533 78.7665 5.728C78.4678 5.92 78.3185 6.288 78.3185 6.832C78.3185 7.856 78.3078 8.62933 78.2865 9.152C78.2652 9.664 78.2545 10.0107 78.2545 10.192C78.2545 10.4373 78.4412 10.56 78.8145 10.56ZM89.1965 11.856C88.8445 11.856 88.5138 11.808 88.2045 11.712C87.9058 11.616 87.6445 11.504 87.4205 11.376V12.624C87.4205 13.008 87.4045 13.344 87.3725 13.632C87.3405 13.9307 87.3245 14.1547 87.3245 14.304C87.3245 14.4107 87.3618 14.4907 87.4365 14.544C87.5218 14.608 87.7245 14.7253 88.0445 14.896L87.8525 15.328C87.1698 15.072 86.6418 14.8373 86.2685 14.624C85.9058 14.4213 85.7245 14.2347 85.7245 14.064C85.7245 13.9147 85.7405 13.68 85.7725 13.36C85.8152 13.0507 85.8365 12.7467 85.8365 12.448V7.104C85.8365 6.90133 85.8418 6.63467 85.8525 6.304C85.8738 5.97333 85.9112 5.69067 85.9645 5.456H85.3725L84.5405 4.352L84.6525 4.096H86.1565C86.1992 4.096 86.2898 4.17067 86.4285 4.32C86.5672 4.45867 86.7112 4.61867 86.8605 4.8C87.0205 4.55467 87.2498 4.35733 87.5485 4.208C87.8578 4.05867 88.1885 3.984 88.5405 3.984H88.8445C89.0792 3.984 89.3352 4.08 89.6125 4.272C89.8898 4.45333 90.1512 4.68267 90.3965 4.96C90.6418 5.22667 90.8445 5.49333 91.0045 5.76C91.1645 6.02667 91.2445 6.24533 91.2445 6.416C91.2445 6.71467 91.2392 7.136 91.2285 7.68C91.2178 8.21333 91.2125 8.848 91.2125 9.584C91.2125 10.2773 91.0312 10.832 90.6685 11.248C90.3058 11.6533 89.8152 11.856 89.1965 11.856ZM89.2285 5.472C88.6952 5.472 88.2685 5.552 87.9485 5.712C87.6285 5.86133 87.4525 6.17067 87.4205 6.64C87.4205 6.75733 87.4205 6.85867 87.4205 6.944V10.464C87.6125 10.5067 87.8152 10.528 88.0285 10.528C88.6045 10.528 89.0152 10.3947 89.2605 10.128C89.5058 9.86133 89.6285 9.488 89.6285 9.008C89.6285 8.66667 89.6338 8.30933 89.6445 7.936C89.6552 7.56267 89.6605 7.21067 89.6605 6.88C89.6712 6.54933 89.6765 6.27733 89.6765 6.064C89.6765 5.91467 89.6552 5.78133 89.6125 5.664C89.5698 5.536 89.4418 5.472 89.2285 5.472ZM95.6354 11.92C95.3794 11.92 95.07 11.856 94.7074 11.728C94.3447 11.6 93.9927 11.4293 93.6514 11.216C93.31 11.0027 93.022 10.7573 92.7874 10.48C92.5634 10.2027 92.4514 9.92 92.4514 9.632C92.4514 9.504 92.4674 9.13067 92.4994 8.512C92.542 7.89333 92.5634 7.12 92.5634 6.192C92.5634 5.44533 92.782 4.896 93.2194 4.544C93.6567 4.192 94.3127 4.016 95.1874 4.016C95.4434 4.016 95.726 4.096 96.0354 4.256C96.3554 4.416 96.6594 4.624 96.9474 4.88C97.2354 5.136 97.47 5.408 97.6514 5.696C97.8434 5.97333 97.9394 6.23467 97.9394 6.48C97.9394 6.88533 97.9287 7.32267 97.9074 7.792C97.8967 8.26133 97.8914 8.864 97.8914 9.6C97.8914 10.2827 97.7047 10.8427 97.3314 11.28C96.958 11.7067 96.3927 11.92 95.6354 11.92ZM94.6114 10.56C95.198 10.56 95.6247 10.4373 95.8914 10.192C96.1687 9.94667 96.3074 9.584 96.3074 9.104C96.3074 8.76267 96.3127 8.37867 96.3234 7.952C96.334 7.51467 96.3447 7.11467 96.3554 6.752C96.366 6.37867 96.3714 6.11733 96.3714 5.968C96.3714 5.78667 96.3394 5.65333 96.2754 5.568C96.2114 5.472 96.0834 5.424 95.8914 5.424C95.3154 5.424 94.8727 5.52533 94.5634 5.728C94.2647 5.92 94.1154 6.288 94.1154 6.832C94.1154 7.856 94.1047 8.62933 94.0834 9.152C94.062 9.664 94.0514 10.0107 94.0514 10.192C94.0514 10.4373 94.238 10.56 94.6114 10.56ZM105.267 11.952C105.022 11.856 104.798 11.7547 104.595 11.648C104.393 11.5413 104.201 11.424 104.019 11.296C103.795 11.4773 103.529 11.6267 103.219 11.744C102.91 11.8613 102.622 11.92 102.355 11.92C102.163 11.92 101.902 11.856 101.571 11.728C101.241 11.6 100.905 11.4293 100.563 11.216C100.222 11.0027 99.9339 10.7733 99.6993 10.528C99.4646 10.272 99.3473 10.0267 99.3473 9.792C99.3473 9.632 99.3579 9.376 99.3793 9.024C99.4113 8.66133 99.4273 8.25067 99.4273 7.792V6.864C99.4273 6.58667 99.4379 6.33067 99.4593 6.096C99.4913 5.85067 99.5393 5.63733 99.6033 5.456H99.0753L98.2272 4.368L98.3392 4.096H100.387L101.315 5.344C101.187 5.51467 101.102 5.728 101.059 5.984C101.027 6.24 101.011 6.56533 101.011 6.96V7.904C101.011 8.608 101.001 9.12 100.979 9.44C100.969 9.76 100.963 9.984 100.963 10.112C100.963 10.4107 101.145 10.56 101.507 10.56C101.774 10.56 102.03 10.512 102.275 10.416C102.531 10.3093 102.739 10.16 102.899 9.968C103.07 9.76533 103.155 9.52533 103.155 9.248V6.864C103.155 6.58667 103.166 6.33067 103.187 6.096C103.219 5.85067 103.267 5.63733 103.331 5.456H102.803L101.955 4.368L102.067 4.096H104.115L105.043 5.344C104.915 5.51467 104.83 5.728 104.787 5.984C104.755 6.24 104.739 6.56533 104.739 6.96V8.672C104.739 9.25867 104.729 9.70133 104.707 10C104.686 10.2987 104.675 10.5173 104.675 10.656C104.675 10.8267 104.734 10.9813 104.851 11.12C104.979 11.248 105.187 11.3867 105.475 11.536L105.267 11.952ZM109.224 12.144C108.306 11.8453 107.645 11.5893 107.24 11.376C106.834 11.152 106.632 10.992 106.632 10.896C106.632 10.7787 106.648 10.576 106.68 10.288C106.722 10 106.743 9.552 106.743 8.944V6.96C106.743 6.74667 106.754 6.496 106.776 6.208C106.797 5.90933 106.829 5.65867 106.872 5.456H106.28L105.447 4.352L105.559 4.096H107.064C107.117 4.096 107.213 4.176 107.352 4.336C107.501 4.48533 107.65 4.65067 107.799 4.832C107.97 4.55467 108.205 4.352 108.504 4.224C108.813 4.096 109.138 4.032 109.48 4.032C109.65 4.032 109.778 4.04267 109.864 4.064L110.664 5.184L110.536 5.376C109.789 5.36533 109.234 5.50933 108.872 5.808C108.509 6.10667 108.328 6.656 108.328 7.456V9.168C108.328 9.70133 108.312 10.1173 108.28 10.416C108.258 10.704 108.248 10.896 108.248 10.992C108.248 11.056 108.269 11.1147 108.312 11.168C108.354 11.2107 108.456 11.264 108.616 11.328C108.786 11.392 109.053 11.4987 109.416 11.648L109.224 12.144ZM119.174 11.952C118.928 11.856 118.704 11.7547 118.502 11.648C118.299 11.5413 118.107 11.424 117.926 11.296C117.702 11.4773 117.435 11.6267 117.126 11.744C116.816 11.8613 116.528 11.92 116.262 11.92C116.07 11.92 115.808 11.856 115.478 11.728C115.147 11.6 114.811 11.4293 114.47 11.216C114.128 11.0027 113.84 10.7733 113.606 10.528C113.371 10.272 113.254 10.0267 113.254 9.792C113.254 9.632 113.264 9.376 113.286 9.024C113.318 8.66133 113.334 8.25067 113.334 7.792V6.864C113.334 6.58667 113.344 6.33067 113.366 6.096C113.398 5.85067 113.446 5.63733 113.51 5.456H112.982L112.133 4.368L112.245 4.096H114.294L115.222 5.344C115.094 5.51467 115.008 5.728 114.966 5.984C114.934 6.24 114.918 6.56533 114.918 6.96V7.904C114.918 8.608 114.907 9.12 114.886 9.44C114.875 9.76 114.87 9.984 114.87 10.112C114.87 10.4107 115.051 10.56 115.414 10.56C115.68 10.56 115.936 10.512 116.182 10.416C116.438 10.3093 116.646 10.16 116.806 9.968C116.976 9.76533 117.062 9.52533 117.062 9.248V6.864C117.062 6.58667 117.072 6.33067 117.094 6.096C117.126 5.85067 117.174 5.63733 117.238 5.456H116.71L115.862 4.368L115.974 4.096H118.022L118.95 5.344C118.822 5.51467 118.736 5.728 118.694 5.984C118.662 6.24 118.646 6.56533 118.646 6.96V8.672C118.646 9.25867 118.635 9.70133 118.614 10C118.592 10.2987 118.582 10.5173 118.582 10.656C118.582 10.8267 118.64 10.9813 118.758 11.12C118.886 11.248 119.094 11.3867 119.382 11.536L119.174 11.952ZM122.634 12C121.951 11.744 121.423 11.5147 121.05 11.312C120.687 11.0987 120.506 10.9067 120.506 10.736C120.506 10.5867 120.522 10.3573 120.554 10.048C120.596 9.728 120.618 9.41867 120.618 9.12V7.072C120.618 6.85867 120.623 6.592 120.634 6.272C120.655 5.952 120.692 5.68 120.746 5.456H120.154L119.322 4.352L119.434 4.096H120.938C120.98 4.096 121.071 4.17067 121.21 4.32C121.359 4.45867 121.508 4.61867 121.658 4.8C121.86 4.52267 122.111 4.32 122.41 4.192C122.719 4.05333 123.018 3.984 123.306 3.984H123.642C123.855 3.984 124.09 4.06933 124.346 4.24C124.612 4.41067 124.868 4.61867 125.114 4.864C125.37 5.10933 125.578 5.35467 125.738 5.6C125.898 5.83467 125.978 6.02667 125.978 6.176C125.978 6.44267 125.967 6.77333 125.946 7.168C125.924 7.56267 125.914 7.88267 125.914 8.128V9.296C125.914 9.68 125.898 10.0213 125.866 10.32C125.834 10.608 125.818 10.8267 125.818 10.976C125.818 11.0827 125.855 11.168 125.93 11.232C126.015 11.2853 126.218 11.3973 126.538 11.568L126.346 12C125.663 11.744 125.135 11.5147 124.762 11.312C124.399 11.0987 124.218 10.9067 124.218 10.736C124.218 10.5867 124.234 10.3573 124.266 10.048C124.308 9.728 124.33 9.41867 124.33 9.12V8.288C124.33 7.94667 124.34 7.55733 124.362 7.12C124.383 6.68267 124.394 6.29867 124.394 5.968C124.394 5.75467 124.367 5.61067 124.314 5.536C124.26 5.46133 124.143 5.424 123.962 5.424C123.364 5.424 122.922 5.57867 122.634 5.888C122.346 6.18667 122.202 6.60267 122.202 7.136V9.296C122.202 9.68 122.186 10.0213 122.154 10.32C122.122 10.608 122.106 10.8267 122.106 10.976C122.106 11.0827 122.143 11.168 122.218 11.232C122.303 11.2853 122.506 11.3973 122.826 11.568L122.634 12ZM131.915 12C131.232 11.744 130.704 11.5147 130.331 11.312C129.968 11.0987 129.787 10.9067 129.787 10.736C129.787 10.5867 129.803 10.3573 129.835 10.048C129.878 9.728 129.899 9.41867 129.899 9.12V7.072C129.899 6.85867 129.904 6.592 129.915 6.272C129.936 5.952 129.974 5.68 130.027 5.456H129.435L128.603 4.352L128.715 4.096H130.219C130.262 4.096 130.352 4.17067 130.491 4.32C130.64 4.45867 130.79 4.61867 130.939 4.8C131.142 4.52267 131.392 4.32 131.691 4.192C132 4.05333 132.299 3.984 132.587 3.984H132.923C133.136 3.984 133.371 4.06933 133.627 4.24C133.894 4.41067 134.15 4.61867 134.395 4.864C134.651 5.10933 134.859 5.35467 135.019 5.6C135.179 5.83467 135.259 6.02667 135.259 6.176C135.259 6.44267 135.248 6.77333 135.227 7.168C135.206 7.56267 135.195 7.88267 135.195 8.128V9.296C135.195 9.68 135.179 10.0213 135.147 10.32C135.115 10.608 135.099 10.8267 135.099 10.976C135.099 11.0827 135.136 11.168 135.211 11.232C135.296 11.2853 135.499 11.3973 135.819 11.568L135.627 12C134.944 11.744 134.416 11.5147 134.043 11.312C133.68 11.0987 133.499 10.9067 133.499 10.736C133.499 10.5867 133.515 10.3573 133.547 10.048C133.59 9.728 133.611 9.41867 133.611 9.12V8.288C133.611 7.94667 133.622 7.55733 133.643 7.12C133.664 6.68267 133.675 6.29867 133.675 5.968C133.675 5.75467 133.648 5.61067 133.595 5.536C133.542 5.46133 133.424 5.424 133.243 5.424C132.646 5.424 132.203 5.57867 131.915 5.888C131.627 6.18667 131.483 6.60267 131.483 7.136V9.296C131.483 9.68 131.467 10.0213 131.435 10.32C131.403 10.608 131.387 10.8267 131.387 10.976C131.387 11.0827 131.424 11.168 131.499 11.232C131.584 11.2853 131.787 11.3973 132.107 11.568L131.915 12ZM139.854 11.92C139.598 11.92 139.289 11.856 138.926 11.728C138.563 11.6 138.211 11.4293 137.87 11.216C137.529 11.0027 137.241 10.7573 137.006 10.48C136.782 10.2027 136.67 9.92 136.67 9.632C136.67 9.504 136.686 9.13067 136.718 8.512C136.761 7.89333 136.782 7.12 136.782 6.192C136.782 5.44533 137.001 4.896 137.438 4.544C137.875 4.192 138.531 4.016 139.406 4.016C139.662 4.016 139.945 4.096 140.254 4.256C140.574 4.416 140.878 4.624 141.166 4.88C141.454 5.136 141.689 5.408 141.87 5.696C142.062 5.97333 142.158 6.23467 142.158 6.48C142.158 6.88533 142.147 7.32267 142.126 7.792C142.115 8.26133 142.11 8.864 142.11 9.6C142.11 10.2827 141.923 10.8427 141.55 11.28C141.177 11.7067 140.611 11.92 139.854 11.92ZM138.83 10.56C139.417 10.56 139.843 10.4373 140.11 10.192C140.387 9.94667 140.526 9.584 140.526 9.104C140.526 8.76267 140.531 8.37867 140.542 7.952C140.553 7.51467 140.563 7.11467 140.574 6.752C140.585 6.37867 140.59 6.11733 140.59 5.968C140.59 5.78667 140.558 5.65333 140.494 5.568C140.43 5.472 140.302 5.424 140.11 5.424C139.534 5.424 139.091 5.52533 138.782 5.728C138.483 5.92 138.334 6.288 138.334 6.832C138.334 7.856 138.323 8.62933 138.302 9.152C138.281 9.664 138.27 10.0107 138.27 10.192C138.27 10.4373 138.457 10.56 138.83 10.56ZM149.486 11.952C149.241 11.856 149.017 11.7547 148.814 11.648C148.611 11.5413 148.419 11.424 148.238 11.296C148.014 11.4773 147.747 11.6267 147.438 11.744C147.129 11.8613 146.841 11.92 146.574 11.92C146.382 11.92 146.121 11.856 145.79 11.728C145.459 11.6 145.123 11.4293 144.782 11.216C144.441 11.0027 144.153 10.7733 143.918 10.528C143.683 10.272 143.566 10.0267 143.566 9.792C143.566 9.632 143.577 9.376 143.598 9.024C143.63 8.66133 143.646 8.25067 143.646 7.792V6.864C143.646 6.58667 143.657 6.33067 143.678 6.096C143.71 5.85067 143.758 5.63733 143.822 5.456H143.294L142.446 4.368L142.558 4.096H144.606L145.534 5.344C145.406 5.51467 145.321 5.728 145.278 5.984C145.246 6.24 145.23 6.56533 145.23 6.96V7.904C145.23 8.608 145.219 9.12 145.198 9.44C145.187 9.76 145.182 9.984 145.182 10.112C145.182 10.4107 145.363 10.56 145.726 10.56C145.993 10.56 146.249 10.512 146.494 10.416C146.75 10.3093 146.958 10.16 147.118 9.968C147.289 9.76533 147.374 9.52533 147.374 9.248V6.864C147.374 6.58667 147.385 6.33067 147.406 6.096C147.438 5.85067 147.486 5.63733 147.55 5.456H147.022L146.174 4.368L146.286 4.096H148.334L149.262 5.344C149.134 5.51467 149.049 5.728 149.006 5.984C148.974 6.24 148.958 6.56533 148.958 6.96V8.672C148.958 9.25867 148.947 9.70133 148.926 10C148.905 10.2987 148.894 10.5173 148.894 10.656C148.894 10.8267 148.953 10.9813 149.07 11.12C149.198 11.248 149.406 11.3867 149.694 11.536L149.486 11.952ZM153.538 12.032C153.421 12.032 153.25 11.9573 153.026 11.808C152.813 11.648 152.589 11.456 152.354 11.232C152.12 11.008 151.912 10.8 151.73 10.608C151.56 10.4053 151.464 10.256 151.442 10.16C151.208 9.21067 151.016 8.45333 150.866 7.888C150.717 7.312 150.605 6.86933 150.53 6.56C150.466 6.24 150.434 5.99467 150.434 5.824C150.434 5.696 150.45 5.57333 150.482 5.456H150.114L149.33 4.352L149.458 4.096H151.49L152.226 5.168V5.376C151.992 5.41867 151.832 5.50933 151.746 5.648C151.661 5.78667 151.618 5.96267 151.618 6.176C151.618 6.29333 151.645 6.48533 151.698 6.752C151.752 7.008 151.853 7.41867 152.002 7.984C152.152 8.53867 152.37 9.31733 152.658 10.32C152.808 9.936 152.957 9.54667 153.106 9.152C153.256 8.74667 153.432 8.256 153.634 7.68C153.837 7.09333 154.093 6.352 154.402 5.456H153.698L152.962 4.352L153.074 4.096H155.074L156.05 5.44C155.602 6.77333 155.229 7.872 154.93 8.736C154.632 9.58933 154.392 10.256 154.21 10.736C154.029 11.216 153.885 11.552 153.778 11.744C153.682 11.936 153.602 12.032 153.538 12.032ZM161.493 12C160.81 11.744 160.282 11.5147 159.909 11.312C159.546 11.0987 159.365 10.9067 159.365 10.736C159.365 10.5867 159.381 10.3573 159.413 10.048C159.456 9.728 159.477 9.41867 159.477 9.12V7.072C159.477 6.85867 159.482 6.592 159.493 6.272C159.514 5.952 159.552 5.68 159.605 5.456H159.013L158.181 4.352L158.293 4.096H159.797C159.84 4.096 159.93 4.16533 160.069 4.304C160.208 4.44267 160.346 4.60267 160.485 4.784C160.901 4.25067 161.424 3.984 162.053 3.984H162.277C162.49 3.984 162.73 4.07467 162.997 4.256C163.264 4.42667 163.514 4.62933 163.749 4.864C163.973 4.544 164.24 4.32 164.549 4.192C164.858 4.05333 165.178 3.984 165.509 3.984H165.781C165.994 3.984 166.229 4.06933 166.485 4.24C166.752 4.41067 167.002 4.61867 167.237 4.864C167.482 5.10933 167.68 5.35467 167.829 5.6C167.989 5.83467 168.069 6.02667 168.069 6.176C168.069 6.44267 168.058 6.77333 168.037 7.168C168.016 7.56267 168.005 7.88267 168.005 8.128V9.296C168.005 9.68 167.989 10.0213 167.957 10.32C167.925 10.608 167.909 10.8267 167.909 10.976C167.909 11.0827 167.946 11.168 168.021 11.232C168.106 11.2853 168.309 11.3973 168.629 11.568L168.437 12C167.754 11.744 167.226 11.5147 166.853 11.312C166.49 11.0987 166.309 10.9067 166.309 10.736C166.309 10.5867 166.325 10.3573 166.357 10.048C166.4 9.728 166.421 9.41867 166.421 9.12V8.288C166.421 7.94667 166.432 7.55733 166.453 7.12C166.474 6.68267 166.485 6.29867 166.485 5.968C166.485 5.75467 166.458 5.61067 166.405 5.536C166.352 5.46133 166.234 5.424 166.053 5.424C165.125 5.424 164.624 5.856 164.549 6.72C164.549 6.96533 164.544 7.216 164.533 7.472C164.533 7.728 164.533 7.94667 164.533 8.128V9.296C164.533 9.68 164.517 10.0213 164.485 10.32C164.453 10.608 164.437 10.8267 164.437 10.976C164.437 11.0827 164.474 11.168 164.549 11.232C164.634 11.2853 164.837 11.3973 165.157 11.568L164.965 12C164.282 11.744 163.754 11.5147 163.381 11.312C163.018 11.0987 162.837 10.9067 162.837 10.736C162.837 10.5867 162.853 10.3573 162.885 10.048C162.928 9.728 162.949 9.41867 162.949 9.12V8.288C162.949 7.94667 162.954 7.55733 162.965 7.12C162.986 6.68267 162.997 6.29867 162.997 5.968C162.997 5.75467 162.97 5.61067 162.917 5.536C162.864 5.46133 162.746 5.424 162.565 5.424C162.042 5.424 161.658 5.57867 161.413 5.888C161.178 6.18667 161.061 6.60267 161.061 7.136V9.296C161.061 9.68 161.045 10.0213 161.013 10.32C160.981 10.608 160.965 10.8267 160.965 10.976C160.965 11.0827 161.002 11.168 161.077 11.232C161.162 11.2853 161.365 11.3973 161.685 11.568L161.493 12ZM172.573 11.92C172.317 11.92 172.008 11.856 171.645 11.728C171.282 11.6 170.93 11.4293 170.589 11.216C170.248 11.0027 169.96 10.7573 169.725 10.48C169.501 10.2027 169.389 9.92 169.389 9.632C169.389 9.504 169.405 9.13067 169.437 8.512C169.48 7.89333 169.501 7.12 169.501 6.192C169.501 5.44533 169.72 4.896 170.157 4.544C170.594 4.192 171.25 4.016 172.125 4.016C172.381 4.016 172.664 4.096 172.973 4.256C173.293 4.416 173.597 4.624 173.885 4.88C174.173 5.136 174.408 5.408 174.589 5.696C174.781 5.97333 174.877 6.23467 174.877 6.48C174.877 6.88533 174.866 7.32267 174.845 7.792C174.834 8.26133 174.829 8.864 174.829 9.6C174.829 10.2827 174.642 10.8427 174.269 11.28C173.896 11.7067 173.33 11.92 172.573 11.92ZM171.549 10.56C172.136 10.56 172.562 10.4373 172.829 10.192C173.106 9.94667 173.245 9.584 173.245 9.104C173.245 8.76267 173.25 8.37867 173.261 7.952C173.272 7.51467 173.282 7.11467 173.293 6.752C173.304 6.37867 173.309 6.11733 173.309 5.968C173.309 5.78667 173.277 5.65333 173.213 5.568C173.149 5.472 173.021 5.424 172.829 5.424C172.253 5.424 171.81 5.52533 171.501 5.728C171.202 5.92 171.053 6.288 171.053 6.832C171.053 7.856 171.042 8.62933 171.021 9.152C171 9.664 170.989 10.0107 170.989 10.192C170.989 10.4373 171.176 10.56 171.549 10.56ZM178.509 12C177.826 11.744 177.298 11.5147 176.925 11.312C176.562 11.0987 176.381 10.9067 176.381 10.736C176.381 10.5867 176.397 10.3573 176.429 10.048C176.471 9.728 176.493 9.41867 176.493 9.12V7.072C176.493 6.85867 176.498 6.592 176.509 6.272C176.53 5.952 176.567 5.68 176.621 5.456H176.029L175.197 4.352L175.309 4.096H176.813C176.855 4.096 176.946 4.16533 177.085 4.304C177.223 4.44267 177.362 4.60267 177.501 4.784C177.917 4.25067 178.439 3.984 179.069 3.984H179.293C179.506 3.984 179.746 4.07467 180.013 4.256C180.279 4.42667 180.53 4.62933 180.765 4.864C180.989 4.544 181.255 4.32 181.565 4.192C181.874 4.05333 182.194 3.984 182.525 3.984H182.797C183.01 3.984 183.245 4.06933 183.501 4.24C183.767 4.41067 184.018 4.61867 184.253 4.864C184.498 5.10933 184.695 5.35467 184.845 5.6C185.005 5.83467 185.085 6.02667 185.085 6.176C185.085 6.44267 185.074 6.77333 185.053 7.168C185.031 7.56267 185.021 7.88267 185.021 8.128V9.296C185.021 9.68 185.005 10.0213 184.973 10.32C184.941 10.608 184.925 10.8267 184.925 10.976C184.925 11.0827 184.962 11.168 185.037 11.232C185.122 11.2853 185.325 11.3973 185.645 11.568L185.453 12C184.77 11.744 184.242 11.5147 183.869 11.312C183.506 11.0987 183.325 10.9067 183.325 10.736C183.325 10.5867 183.341 10.3573 183.373 10.048C183.415 9.728 183.437 9.41867 183.437 9.12V8.288C183.437 7.94667 183.447 7.55733 183.469 7.12C183.49 6.68267 183.501 6.29867 183.501 5.968C183.501 5.75467 183.474 5.61067 183.421 5.536C183.367 5.46133 183.25 5.424 183.069 5.424C182.141 5.424 181.639 5.856 181.565 6.72C181.565 6.96533 181.559 7.216 181.549 7.472C181.549 7.728 181.549 7.94667 181.549 8.128V9.296C181.549 9.68 181.533 10.0213 181.501 10.32C181.469 10.608 181.453 10.8267 181.453 10.976C181.453 11.0827 181.49 11.168 181.565 11.232C181.65 11.2853 181.853 11.3973 182.173 11.568L181.981 12C181.298 11.744 180.77 11.5147 180.397 11.312C180.034 11.0987 179.853 10.9067 179.853 10.736C179.853 10.5867 179.869 10.3573 179.901 10.048C179.943 9.728 179.965 9.41867 179.965 9.12V8.288C179.965 7.94667 179.97 7.55733 179.981 7.12C180.002 6.68267 180.013 6.29867 180.013 5.968C180.013 5.75467 179.986 5.61067 179.933 5.536C179.879 5.46133 179.762 5.424 179.581 5.424C179.058 5.424 178.674 5.57867 178.429 5.888C178.194 6.18667 178.077 6.60267 178.077 7.136V9.296C178.077 9.68 178.061 10.0213 178.029 10.32C177.997 10.608 177.981 10.8267 177.981 10.976C177.981 11.0827 178.018 11.168 178.093 11.232C178.178 11.2853 178.381 11.3973 178.701 11.568L178.509 12ZM189.733 11.92C189.615 11.92 189.429 11.888 189.173 11.824C188.927 11.76 188.655 11.6747 188.357 11.568C188.058 11.4507 187.77 11.3173 187.493 11.168C187.215 11.0187 186.986 10.8587 186.805 10.688C186.634 10.5173 186.549 10.3467 186.549 10.176C186.549 9.84533 186.565 9.488 186.597 9.104C186.629 8.70933 186.65 8.18667 186.661 7.536V4.848C186.661 4.208 186.682 3.62133 186.725 3.088C186.778 2.544 186.842 2.10667 186.917 1.776H186.229L185.348 0.735999L185.46 0.48H187.541L188.485 1.696C188.41 2.06933 188.351 2.49067 188.309 2.96C188.277 3.41867 188.255 3.89333 188.245 4.384C188.405 4.27733 188.597 4.18667 188.821 4.112C189.055 4.02667 189.306 3.984 189.573 3.984C189.786 3.984 190.031 4.08 190.309 4.272C190.597 4.45333 190.874 4.68267 191.141 4.96C191.418 5.22667 191.642 5.49867 191.813 5.776C191.994 6.04267 192.085 6.26667 192.085 6.448C192.085 6.608 192.079 6.85333 192.069 7.184C192.069 7.504 192.063 7.872 192.053 8.288C192.042 8.704 192.037 9.13067 192.037 9.568C192.037 10.272 191.839 10.8427 191.445 11.28C191.061 11.7067 190.49 11.92 189.733 11.92ZM188.181 10.224C188.181 10.448 188.351 10.56 188.693 10.56C189.226 10.56 189.653 10.4533 189.973 10.24C190.293 10.0267 190.453 9.60533 190.453 8.976C190.453 8.34667 190.463 7.77067 190.485 7.248C190.506 6.71467 190.516 6.27733 190.516 5.936C190.516 5.75467 190.474 5.62667 190.389 5.552C190.314 5.46667 190.149 5.424 189.893 5.424C189.285 5.424 188.858 5.54667 188.613 5.792C188.367 6.02667 188.245 6.42667 188.245 6.992V7.936C188.245 8.45867 188.234 8.944 188.213 9.392C188.191 9.82933 188.181 10.1067 188.181 10.224ZM196.608 11.888C196.352 11.888 196.037 11.824 195.664 11.696C195.291 11.5573 194.917 11.3813 194.544 11.168C194.181 10.944 193.877 10.704 193.632 10.448C193.387 10.1813 193.264 9.92 193.264 9.664C193.264 9.408 193.28 8.96533 193.312 8.336C193.355 7.70667 193.376 6.95467 193.376 6.08C193.376 4.69333 194.133 4 195.648 4C195.883 4 196.155 4.07467 196.464 4.224C196.773 4.36267 197.072 4.54933 197.36 4.784C197.648 5.008 197.888 5.24267 198.08 5.488C198.272 5.73333 198.368 5.96267 198.368 6.176V7.488C198.368 8.352 197.888 8.784 196.928 8.784C196.629 8.784 196.288 8.768 195.904 8.736C195.52 8.69333 195.179 8.64533 194.88 8.592C194.869 8.944 194.859 9.264 194.848 9.552C194.848 9.82933 194.848 9.98933 194.848 10.032C194.848 10.2027 194.891 10.3253 194.976 10.4C195.061 10.4747 195.216 10.512 195.44 10.512C195.771 10.512 196.128 10.464 196.512 10.368C196.907 10.2613 197.259 10.1067 197.568 9.904H197.808L198.672 11.216C198.469 11.408 198.165 11.568 197.76 11.696C197.365 11.824 196.981 11.888 196.608 11.888ZM194.928 6.592C194.928 6.67733 194.923 6.80533 194.912 6.976C194.912 7.14667 194.912 7.33867 194.912 7.552C195.221 7.584 195.579 7.6 195.984 7.6C196.293 7.6 196.507 7.52533 196.624 7.376C196.752 7.216 196.816 6.976 196.816 6.656V5.792C196.816 5.67467 196.784 5.57333 196.72 5.488C196.656 5.40267 196.517 5.36 196.304 5.36C195.877 5.36 195.541 5.45067 195.296 5.632C195.051 5.80267 194.928 6.12267 194.928 6.592ZM202.505 12.144C201.587 11.8453 200.926 11.5893 200.521 11.376C200.115 11.152 199.913 10.992 199.913 10.896C199.913 10.7787 199.929 10.576 199.961 10.288C200.003 10 200.025 9.552 200.025 8.944V6.96C200.025 6.74667 200.035 6.496 200.057 6.208C200.078 5.90933 200.11 5.65867 200.153 5.456H199.561L198.729 4.352L198.841 4.096H200.345C200.398 4.096 200.494 4.176 200.633 4.336C200.782 4.48533 200.931 4.65067 201.081 4.832C201.251 4.55467 201.486 4.352 201.785 4.224C202.094 4.096 202.419 4.032 202.761 4.032C202.931 4.032 203.059 4.04267 203.145 4.064L203.945 5.184L203.817 5.376C203.07 5.36533 202.515 5.50933 202.153 5.808C201.79 6.10667 201.609 6.656 201.609 7.456V9.168C201.609 9.70133 201.593 10.1173 201.561 10.416C201.539 10.704 201.529 10.896 201.529 10.992C201.529 11.056 201.55 11.1147 201.593 11.168C201.635 11.2107 201.737 11.264 201.897 11.328C202.067 11.392 202.334 11.4987 202.697 11.648L202.505 12.144Z" fill="black"/>
</svg>
