<svg width="1016" height="120" viewBox="0 0 1016 120" fill="none" xmlns="http://www.w3.org/2000/svg">
<path d="M38.072 91.848C35.256 91.848 32.6107 91.464 30.136 90.696C27.7467 89.928 25.656 89.032 23.864 88.008V97.992C23.864 101.064 23.736 103.752 23.48 106.056C23.224 108.445 23.096 110.237 23.096 111.432C23.096 112.285 23.3947 112.925 23.992 113.352C24.6747 113.864 26.296 114.803 28.856 116.168L27.32 119.624C21.8587 117.576 17.6347 115.699 14.648 113.992C11.7467 112.371 10.296 110.877 10.296 109.512C10.296 108.317 10.424 106.44 10.68 103.88C11.0213 101.405 11.192 98.9733 11.192 96.584V53.832C11.192 52.2107 11.2347 50.0773 11.32 47.432C11.4907 44.7867 11.7893 42.5253 12.216 40.648H7.48L0.824 31.816L1.72 29.768H13.752C14.0933 29.768 14.8187 30.3653 15.928 31.56C17.0373 32.6693 18.1893 33.9493 19.384 35.4C20.664 33.4373 22.4987 31.8587 24.888 30.664C27.3627 29.4693 30.008 28.872 32.824 28.872H35.256C37.1333 28.872 39.1813 29.64 41.4 31.176C43.6187 32.6267 45.7093 34.4613 47.672 36.68C49.6347 38.8133 51.256 40.9467 52.536 43.08C53.816 45.2133 54.456 46.9627 54.456 48.328C54.456 50.7173 54.4133 54.088 54.328 58.44C54.2427 62.7067 54.2 67.784 54.2 73.672C54.2 79.2187 52.7493 83.656 49.848 86.984C46.9467 90.2267 43.0213 91.848 38.072 91.848ZM38.328 40.776C34.0613 40.776 30.648 41.416 28.088 42.696C25.528 43.8907 24.12 46.3653 23.864 50.12C23.864 51.0587 23.864 51.8693 23.864 52.552V80.712C25.4 81.0533 27.0213 81.224 28.728 81.224C33.336 81.224 36.6213 80.1573 38.584 78.024C40.5467 75.8907 41.528 72.904 41.528 69.064C41.528 66.3333 41.5707 63.4747 41.656 60.488C41.7413 57.5013 41.784 54.6853 41.784 52.04C41.8693 49.3947 41.912 47.2187 41.912 45.512C41.912 44.3173 41.7413 43.2507 41.4 42.312C41.0587 41.288 40.0347 40.776 38.328 40.776ZM87.663 94.152C80.3243 91.7627 75.0337 89.7147 71.791 88.008C68.5483 86.216 66.927 84.936 66.927 84.168C66.927 83.2293 67.055 81.608 67.311 79.304C67.6523 77 67.823 73.416 67.823 68.552V52.68C67.823 50.9733 67.9083 48.968 68.079 46.664C68.2497 44.2747 68.5057 42.2693 68.847 40.648H64.111L57.455 31.816L58.351 29.768H70.383C70.8097 29.768 71.5777 30.408 72.687 31.688C73.8817 32.8827 75.0763 34.2053 76.271 35.656C77.6363 33.4373 79.5137 31.816 81.903 30.792C84.3777 29.768 86.9803 29.256 89.711 29.256C91.0763 29.256 92.1003 29.3413 92.783 29.512L99.183 38.472L98.159 40.008C92.1857 39.9227 87.7483 41.0747 84.847 43.464C81.9457 45.8533 80.495 50.248 80.495 56.648V70.344C80.495 74.6107 80.367 77.9387 80.111 80.328C79.9403 82.632 79.855 84.168 79.855 84.936C79.855 85.448 80.0257 85.9173 80.367 86.344C80.7083 86.6853 81.519 87.112 82.799 87.624C84.1643 88.136 86.2977 88.9893 89.199 90.184L87.663 94.152ZM128.113 92.104C126.065 92.104 123.548 91.592 120.561 90.568C117.574 89.4587 114.588 88.0507 111.601 86.344C108.7 84.552 106.268 82.632 104.305 80.584C102.342 78.4507 101.361 76.36 101.361 74.312C101.361 72.264 101.489 68.7227 101.745 63.688C102.086 58.6533 102.257 52.6373 102.257 45.64C102.257 34.5467 108.316 29 120.433 29C122.31 29 124.486 29.5973 126.961 30.792C129.436 31.9013 131.825 33.3947 134.129 35.272C136.433 37.064 138.353 38.9413 139.889 40.904C141.425 42.8667 142.193 44.7013 142.193 46.408V56.904C142.193 63.816 138.353 67.272 130.673 67.272C128.284 67.272 125.553 67.144 122.481 66.888C119.409 66.5467 116.678 66.1627 114.289 65.736C114.204 68.552 114.118 71.112 114.033 73.416C114.033 75.6347 114.033 76.9147 114.033 77.256C114.033 78.6213 114.374 79.6027 115.057 80.2C115.74 80.7973 116.977 81.096 118.769 81.096C121.414 81.096 124.273 80.712 127.345 79.944C130.502 79.0907 133.318 77.8533 135.793 76.232H137.713L144.625 86.728C143.004 88.264 140.572 89.544 137.329 90.568C134.172 91.592 131.1 92.104 128.113 92.104ZM114.673 49.736C114.673 50.4187 114.63 51.4427 114.545 52.808C114.545 54.1733 114.545 55.7093 114.545 57.416C117.02 57.672 119.878 57.8 123.121 57.8C125.596 57.8 127.302 57.2027 128.241 56.008C129.265 54.728 129.777 52.808 129.777 50.248V43.336C129.777 42.3973 129.521 41.5867 129.009 40.904C128.497 40.2213 127.388 39.88 125.681 39.88C122.268 39.88 119.58 40.6053 117.617 42.056C115.654 43.4213 114.673 45.9813 114.673 49.736ZM173.24 92.616C166.755 92.616 161.677 90.5253 158.008 86.344C154.339 82.0773 151.779 76.3173 150.328 69.064L154.424 67.912C156.045 72.008 157.88 74.9093 159.928 76.616C162.061 78.3227 164.92 79.176 168.504 79.176C172.6 79.176 176.056 78.024 178.872 75.72C181.773 73.416 183.224 70.6 183.224 67.272C183.224 65.3947 182.541 64.456 181.176 64.456C180.067 64.456 178.445 64.712 176.312 65.224C174.264 65.736 172.216 66.2907 170.168 66.888C168.12 67.4 166.584 67.656 165.56 67.656C164.024 67.656 162.445 66.9307 160.824 65.48C159.288 64.0293 157.837 62.1947 156.472 59.976C155.107 57.672 153.997 55.2827 153.144 52.808C152.291 50.3333 151.864 48.0293 151.864 45.896C151.864 40.8613 153.443 36.6373 156.6 33.224C159.843 29.8107 164.451 28.104 170.424 28.104C175.544 28.104 179.725 29.4693 182.968 32.2C186.211 34.9307 188.685 39.112 190.392 44.744L185.912 46.28C183.608 42.6107 180.109 40.776 175.416 40.776C171.32 40.776 167.864 41.8427 165.048 43.976C162.232 46.1093 160.824 48.7973 160.824 52.04C160.824 53.7467 161.635 54.6 163.256 54.6C164.536 54.6 166.2 54.344 168.248 53.832C170.296 53.2347 172.344 52.68 174.392 52.168C176.44 51.656 178.104 51.4 179.384 51.4C181.347 51.4 183.267 52.5093 185.144 54.728C187.021 56.9467 188.557 59.7627 189.752 63.176C190.947 66.5893 191.544 70.088 191.544 73.672C191.544 79.3893 189.965 83.9973 186.808 87.496C183.651 90.9093 179.128 92.616 173.24 92.616ZM226.113 92.104C224.065 92.104 221.548 91.592 218.561 90.568C215.574 89.4587 212.588 88.0507 209.601 86.344C206.7 84.552 204.268 82.632 202.305 80.584C200.342 78.4507 199.361 76.36 199.361 74.312C199.361 72.264 199.489 68.7227 199.745 63.688C200.086 58.6533 200.257 52.6373 200.257 45.64C200.257 34.5467 206.316 29 218.433 29C220.31 29 222.486 29.5973 224.961 30.792C227.436 31.9013 229.825 33.3947 232.129 35.272C234.433 37.064 236.353 38.9413 237.889 40.904C239.425 42.8667 240.193 44.7013 240.193 46.408V56.904C240.193 63.816 236.353 67.272 228.673 67.272C226.284 67.272 223.553 67.144 220.481 66.888C217.409 66.5467 214.678 66.1627 212.289 65.736C212.204 68.552 212.118 71.112 212.033 73.416C212.033 75.6347 212.033 76.9147 212.033 77.256C212.033 78.6213 212.374 79.6027 213.057 80.2C213.74 80.7973 214.977 81.096 216.769 81.096C219.414 81.096 222.273 80.712 225.345 79.944C228.502 79.0907 231.318 77.8533 233.793 76.232H235.713L242.625 86.728C241.004 88.264 238.572 89.544 235.329 90.568C232.172 91.592 229.1 92.104 226.113 92.104ZM212.673 49.736C212.673 50.4187 212.63 51.4427 212.545 52.808C212.545 54.1733 212.545 55.7093 212.545 57.416C215.02 57.672 217.878 57.8 221.121 57.8C223.596 57.8 225.302 57.2027 226.241 56.008C227.265 54.728 227.777 52.808 227.777 50.248V43.336C227.777 42.3973 227.521 41.5867 227.009 40.904C226.497 40.2213 225.388 39.88 223.681 39.88C220.268 39.88 217.58 40.6053 215.617 42.056C213.654 43.4213 212.673 45.9813 212.673 49.736ZM269.32 93C263.859 90.952 259.635 89.1173 256.648 87.496C253.747 85.7893 252.296 84.2533 252.296 82.888C252.296 81.6933 252.424 79.8587 252.68 77.384C253.021 74.824 253.192 72.3493 253.192 69.96V53.576C253.192 51.8693 253.235 49.736 253.32 47.176C253.491 44.616 253.789 42.44 254.216 40.648H249.48L242.824 31.816L243.72 29.768H255.752C256.093 29.768 256.819 30.3653 257.928 31.56C259.123 32.6693 260.317 33.9493 261.512 35.4C263.133 33.1813 265.139 31.56 267.528 30.536C270.003 29.4267 272.392 28.872 274.696 28.872H277.384C279.091 28.872 280.968 29.5547 283.016 30.92C285.149 32.2853 287.197 33.9493 289.16 35.912C291.208 37.8747 292.872 39.8373 294.152 41.8C295.432 43.6773 296.072 45.2133 296.072 46.408C296.072 48.5413 295.987 51.1867 295.816 54.344C295.645 57.5013 295.56 60.0613 295.56 62.024V71.368C295.56 74.44 295.432 77.1707 295.176 79.56C294.92 81.864 294.792 83.6133 294.792 84.808C294.792 85.6613 295.091 86.344 295.688 86.856C296.371 87.2827 297.992 88.1787 300.552 89.544L299.016 93C293.555 90.952 289.331 89.1173 286.344 87.496C283.443 85.7893 281.992 84.2533 281.992 82.888C281.992 81.6933 282.12 79.8587 282.376 77.384C282.717 74.824 282.888 72.3493 282.888 69.96V63.304C282.888 60.5733 282.973 57.4587 283.144 53.96C283.315 50.4613 283.4 47.3893 283.4 44.744C283.4 43.0373 283.187 41.8853 282.76 41.288C282.333 40.6907 281.395 40.392 279.944 40.392C275.165 40.392 271.624 41.6293 269.32 44.104C267.016 46.4933 265.864 49.8213 265.864 54.088V71.368C265.864 74.44 265.736 77.1707 265.48 79.56C265.224 81.864 265.096 83.6133 265.096 84.808C265.096 85.6613 265.395 86.344 265.992 86.856C266.675 87.2827 268.296 88.1787 270.856 89.544L269.32 93ZM330.017 91.976C328.737 91.976 326.988 91.5067 324.769 90.568C322.55 89.544 320.289 88.264 317.985 86.728C315.681 85.1067 313.718 83.4427 312.097 81.736C310.476 79.944 309.665 78.2373 309.665 76.616C309.665 75.6773 309.708 74.696 309.793 73.672C309.878 72.648 310.006 71.3253 310.177 69.704C310.348 67.9973 310.476 65.736 310.561 62.92C310.646 60.104 310.689 56.4347 310.689 51.912C310.689 50.2053 310.689 48.4133 310.689 46.536C310.689 44.6587 310.646 42.696 310.561 40.648H308.257L301.729 32.072L302.625 30.024C307.148 29.512 310.006 28.1467 311.201 25.928C312.396 23.7093 312.993 20.3387 312.993 15.816L315.169 15.048L322.977 20.936C322.977 22.472 322.977 23.9653 322.977 25.416C322.977 26.8667 322.977 28.3173 322.977 29.768H333.857L340.257 38.728L339.361 40.648H323.105C323.105 43.72 323.105 46.664 323.105 49.48C323.105 52.296 323.105 54.984 323.105 57.544C323.105 62.4933 323.02 66.2907 322.849 68.936C322.764 71.5813 322.636 73.544 322.465 74.824C322.294 76.104 322.209 77.2987 322.209 78.408C322.209 80.1147 323.105 80.968 324.897 80.968C326.433 80.968 328.097 80.584 329.889 79.816C331.681 78.9627 333.345 77.9387 334.881 76.744H336.673L342.689 86.728C341.494 88.1787 339.617 89.416 337.057 90.44C334.497 91.464 332.15 91.976 330.017 91.976ZM373.738 92.104C371.69 92.104 369.173 91.592 366.186 90.568C363.199 89.4587 360.213 88.0507 357.226 86.344C354.325 84.552 351.893 82.632 349.93 80.584C347.967 78.4507 346.986 76.36 346.986 74.312C346.986 72.264 347.114 68.7227 347.37 63.688C347.711 58.6533 347.882 52.6373 347.882 45.64C347.882 34.5467 353.941 29 366.058 29C367.935 29 370.111 29.5973 372.586 30.792C375.061 31.9013 377.45 33.3947 379.754 35.272C382.058 37.064 383.978 38.9413 385.514 40.904C387.05 42.8667 387.818 44.7013 387.818 46.408V56.904C387.818 63.816 383.978 67.272 376.298 67.272C373.909 67.272 371.178 67.144 368.106 66.888C365.034 66.5467 362.303 66.1627 359.914 65.736C359.829 68.552 359.743 71.112 359.658 73.416C359.658 75.6347 359.658 76.9147 359.658 77.256C359.658 78.6213 359.999 79.6027 360.682 80.2C361.365 80.7973 362.602 81.096 364.394 81.096C367.039 81.096 369.898 80.712 372.97 79.944C376.127 79.0907 378.943 77.8533 381.418 76.232H383.338L390.25 86.728C388.629 88.264 386.197 89.544 382.954 90.568C379.797 91.592 376.725 92.104 373.738 92.104ZM360.298 49.736C360.298 50.4187 360.255 51.4427 360.17 52.808C360.17 54.1733 360.17 55.7093 360.17 57.416C362.645 57.672 365.503 57.8 368.746 57.8C371.221 57.8 372.927 57.2027 373.866 56.008C374.89 54.728 375.402 52.808 375.402 50.248V43.336C375.402 42.3973 375.146 41.5867 374.634 40.904C374.122 40.2213 373.013 39.88 371.306 39.88C367.893 39.88 365.205 40.6053 363.242 42.056C361.279 43.4213 360.298 45.9813 360.298 49.736ZM444.977 92.744C443.014 92.1467 441.265 91.5067 439.729 90.824C438.278 90.1413 436.657 89.288 434.865 88.264C433.158 89.7147 431.409 90.7813 429.617 91.464C427.91 92.0613 425.734 92.36 423.089 92.36C421.041 92.36 418.566 91.848 415.665 90.824C412.849 89.8 410.033 88.4347 407.217 86.728C404.486 85.0213 402.182 83.0587 400.305 80.84C398.513 78.6213 397.617 76.36 397.617 74.056C397.617 73.1173 397.745 70.4293 398.001 65.992C398.257 61.4693 398.385 54.9413 398.385 46.408C398.385 40.3493 400.049 35.9973 403.377 33.352C406.705 30.7067 411.356 29.384 417.329 29.384C419.121 29.384 420.998 29.7253 422.961 30.408C425.009 31.0907 426.844 31.9013 428.465 32.84C428.55 28.3173 428.764 24.1787 429.105 20.424C429.446 16.6693 429.916 13.5973 430.513 11.208H425.009L417.969 2.88799L418.865 0.839996H435.505L443.057 10.568C442.46 13.896 441.99 17.6933 441.649 21.96C441.308 26.1413 441.137 30.408 441.137 34.76V54.088C441.137 58.2693 441.052 62.5787 440.881 67.016C440.71 71.368 440.668 76.0187 440.753 80.968C440.838 83.528 441.265 85.2773 442.033 86.216C442.801 87.1547 444.422 88.136 446.897 89.16L444.977 92.744ZM410.417 77.512C410.417 78.9627 410.758 79.9867 411.441 80.584C412.209 81.1813 413.361 81.48 414.897 81.48C419.505 81.48 422.918 80.4133 425.137 78.28C427.356 76.1467 428.465 73.16 428.465 69.32V41.16C426.844 40.8187 425.094 40.648 423.217 40.648C419.633 40.648 416.689 41.416 414.385 42.952C412.166 44.488 411.014 47.3893 410.929 51.656L410.417 77.512ZM497.36 92.36C496.421 92.36 494.928 92.104 492.88 91.592C490.917 91.08 488.741 90.3973 486.352 89.544C483.963 88.6053 481.659 87.5387 479.44 86.344C477.221 85.1493 475.387 83.8693 473.936 82.504C472.571 81.1387 471.888 79.7733 471.888 78.408C471.888 75.7627 472.016 72.904 472.272 69.832C472.528 66.6747 472.699 62.4933 472.784 57.288V35.784C472.784 30.664 472.955 25.9707 473.296 21.704C473.723 17.352 474.235 13.8533 474.832 11.208H469.328L462.288 2.88799L463.184 0.839996H479.824L487.376 10.568C486.779 13.5547 486.309 16.9253 485.968 20.68C485.712 24.3493 485.541 28.1467 485.456 32.072C486.736 31.2187 488.272 30.4933 490.064 29.896C491.941 29.2133 493.947 28.872 496.08 28.872C497.787 28.872 499.749 29.64 501.968 31.176C504.272 32.6267 506.491 34.4613 508.624 36.68C510.843 38.8133 512.635 40.9893 514 43.208C515.451 45.3413 516.176 47.1333 516.176 48.584C516.176 49.864 516.133 51.8267 516.048 54.472C516.048 57.032 516.005 59.976 515.92 63.304C515.835 66.632 515.792 70.0453 515.792 73.544C515.792 79.176 514.213 83.7413 511.056 87.24C507.984 90.6533 503.419 92.36 497.36 92.36ZM484.944 78.792C484.944 80.584 486.309 81.48 489.04 81.48C493.307 81.48 496.72 80.6267 499.28 78.92C501.84 77.2133 503.12 73.8427 503.12 68.808C503.12 63.7733 503.205 59.1653 503.376 54.984C503.547 50.7173 503.632 47.2187 503.632 44.488C503.632 43.0373 503.291 42.0133 502.608 41.416C502.011 40.7333 500.688 40.392 498.64 40.392C493.776 40.392 490.363 41.3733 488.4 43.336C486.437 45.2133 485.456 48.4133 485.456 52.936V60.488C485.456 64.6693 485.371 68.552 485.2 72.136C485.029 75.6347 484.944 77.8533 484.944 78.792ZM534.955 78.664C532.054 69.6187 529.792 62.1947 528.171 56.392C526.55 50.504 525.739 46.4507 525.739 44.232C525.739 42.696 525.867 41.5013 526.123 40.648H523.051L516.907 31.816L517.931 29.768H534.315L540.203 38.344L539.563 40.008C536.918 40.52 535.595 42.5253 535.595 46.024C535.595 48.072 536.278 51.8267 537.643 57.288C539.094 62.664 541.483 69.8747 544.811 78.92C547.371 71.496 549.803 64.4987 552.107 57.928C554.496 51.272 556.544 45.512 558.251 40.648H551.211L545.451 31.816L546.475 29.768H563.755L570.795 40.392C565.248 56.4347 560.512 70.1733 556.587 81.608C552.662 93.0427 549.504 101.789 547.115 107.848C544.811 113.992 543.147 117.064 542.123 117.064C541.099 117.064 539.435 116.552 537.131 115.528C534.912 114.589 532.608 113.48 530.219 112.2C527.915 110.92 526.123 109.853 524.843 109L526.763 105.544C527.616 106.056 528.512 106.525 529.451 106.952C530.39 107.464 531.286 107.72 532.139 107.72C532.822 107.72 533.547 107.165 534.315 106.056C535.083 105.032 536.022 103.112 537.131 100.296C538.326 97.5653 539.819 93.64 541.611 88.52C541.782 88.0933 541.91 87.6667 541.995 87.24C540.459 86.0453 539.008 84.68 537.643 83.144C536.363 81.608 535.467 80.1147 534.955 78.664ZM614.186 92.616C612.053 91.7627 609.621 90.696 606.89 89.416C604.245 88.0507 601.941 86.7707 599.978 85.576C598.015 84.296 597.034 83.3573 597.034 82.76C597.034 81.8213 597.29 79.7307 597.802 76.488C598.399 73.2453 598.698 69.2347 598.698 64.456V50.504C598.698 43.4213 598.911 37.6613 599.338 33.224C599.765 28.7013 600.405 24.904 601.258 21.832H596.138L590.378 13.512L591.53 11.208H615.85C617.301 14.1947 618.751 17.864 620.202 22.216C621.738 26.4827 623.189 31.0907 624.554 36.04C625.919 40.904 627.114 45.5973 628.138 50.12C629.674 42.8667 631.722 35.912 634.282 29.256C636.842 22.5147 639.786 16.4987 643.114 11.208H654.89L662.186 21.448C661.589 23.4107 661.119 25.8 660.778 28.616C660.437 31.3467 660.266 34.9733 660.266 39.496V66.248C660.266 70.088 660.138 73.16 659.882 75.464C659.711 77.6827 659.498 79.432 659.242 80.712C658.986 81.992 658.858 83.1013 658.858 84.04C658.858 84.6373 659.37 85.3627 660.394 86.216C661.418 87.0693 662.783 88.008 664.49 89.032L662.826 92.616C660.693 91.7627 658.261 90.696 655.53 89.416C652.885 88.0507 650.581 86.7707 648.618 85.576C646.655 84.296 645.674 83.3573 645.674 82.76C645.674 81.5653 645.93 79.6027 646.442 76.872C647.039 74.056 647.338 69.9173 647.338 64.456V45C647.338 40.904 647.423 37.1067 647.594 33.608C647.85 30.024 648.234 26.8667 648.746 24.136C646.869 28.4027 645.077 33.352 643.37 38.984C641.663 44.616 640.085 50.4187 638.634 56.392C637.269 62.3653 636.202 68.0827 635.434 73.544L633.258 74.824L623.018 69.192C622.421 64.328 621.567 59.208 620.458 53.832C619.349 48.3707 618.111 43.1227 616.746 38.088C615.381 33.0533 614.015 28.5307 612.65 24.52C612.394 27.1653 612.181 30.1947 612.01 33.608C611.839 37.0213 611.711 40.4347 611.626 43.848C611.626 47.176 611.626 50.12 611.626 52.68V66.248C611.626 70.088 611.498 73.16 611.242 75.464C611.071 77.6827 610.858 79.432 610.602 80.712C610.346 81.992 610.218 83.1013 610.218 84.04C610.218 84.6373 610.73 85.3627 611.754 86.216C612.778 87.0693 614.143 88.008 615.85 89.032L614.186 92.616ZM692.207 93.256C686.575 91.3787 682.308 89.6293 679.407 88.008C676.506 86.3867 675.055 85.064 675.055 84.04C675.055 83.1013 675.14 82.12 675.311 81.096C675.482 80.072 675.652 78.5787 675.823 76.616C675.994 74.6533 676.079 71.8373 676.079 68.168V43.848C676.079 38.216 676.292 33.6507 676.719 30.152C677.231 26.568 677.743 23.7947 678.255 21.832H673.903L667.503 13.256L668.527 11.208H680.559C683.204 11.1227 685.85 11.0373 688.495 10.952C691.226 10.7813 693.359 10.696 694.895 10.696C697.199 10.696 699.716 11.3787 702.447 12.744C705.263 14.1093 707.908 15.8587 710.383 17.992C712.943 20.1253 715.034 22.344 716.655 24.648C718.276 26.8667 719.087 28.8293 719.087 30.536V41.928C719.087 49.2667 715.887 54.5147 709.487 57.672C716.228 61.3413 719.599 65.1813 719.599 69.192C719.599 71.0693 719.556 73.3733 719.471 76.104C719.386 78.8347 719.343 81.1813 719.343 83.144C719.343 84.5093 719.812 85.6613 720.751 86.6C721.69 87.4533 723.268 88.4773 725.487 89.672L723.567 93.512C717.85 91.0373 713.455 88.904 710.383 87.112C707.311 85.32 705.775 83.3573 705.775 81.224C705.775 79.0907 705.86 76.8293 706.031 74.44C706.202 71.9653 706.287 69.9173 706.287 68.296C706.287 65.3947 705.092 63.176 702.703 61.64C700.314 60.0187 696.516 59.208 691.311 59.208H689.007V70.984C689.007 74.6533 688.879 77.5973 688.623 79.816C688.452 81.9493 688.367 83.6133 688.367 84.808C688.367 86.2587 690.202 87.8373 693.871 89.544L692.207 93.256ZM701.295 21.832C699.674 21.832 698.01 21.9173 696.303 22.088C694.682 22.1733 693.018 22.344 691.311 22.6C690.714 24.904 690.159 27.7627 689.647 31.176C689.22 34.504 689.007 38.4293 689.007 42.952V48.456H696.943C699.93 48.456 702.234 47.432 703.855 45.384C705.562 43.2507 706.415 40.2213 706.415 36.296V29.256C706.415 26.5253 706.031 24.6053 705.263 23.496C704.495 22.3867 703.172 21.832 701.295 21.832ZM741.94 92.36L732.34 82.248V80.84C733.791 79.1333 735.369 77.512 737.076 75.976C738.868 74.44 740.788 73.0747 742.836 71.88L752.436 81.736L752.308 83.4C750.431 84.7653 748.639 86.2587 746.932 87.88C745.225 89.416 743.561 90.9093 741.94 92.36ZM778.966 92.872C773.334 90.9947 769.067 89.2453 766.166 87.624C763.265 86.0027 761.814 84.68 761.814 83.656C761.814 82.7173 761.899 81.736 762.07 80.712C762.241 79.688 762.411 78.1947 762.582 76.232C762.753 74.2693 762.838 71.4533 762.838 67.784V41.544C762.923 37.704 763.137 33.992 763.478 30.408C763.819 26.824 764.417 23.9653 765.27 21.832H760.662L754.39 13.256L755.286 11.208H771.67L778.838 21.192C777.899 23.8373 777.131 27.08 776.534 30.92C776.022 34.76 775.766 39.0693 775.766 43.848V44.104H779.222C781.27 44.104 783.275 43.464 785.238 42.184C787.201 40.8187 789.377 37.832 791.766 33.224C793.558 29.7253 794.838 27.208 795.606 25.672C796.374 24.136 797.014 22.856 797.526 21.832H792.534L785.878 13.256L786.902 11.208H803.414L810.71 21.064C810.198 22.2587 809.729 23.368 809.302 24.392C808.875 25.416 808.321 26.696 807.638 28.232C807.041 29.6827 806.059 31.816 804.694 34.632C802.817 38.5573 800.939 41.8853 799.062 44.616C797.27 47.2613 795.35 49.48 793.302 51.272C798.422 53.7467 802.049 56.136 804.182 58.44C806.401 60.744 807.51 62.7067 807.51 64.328C807.51 66.2053 807.467 68.3813 807.382 70.856C807.382 73.2453 807.339 75.5493 807.254 77.768C807.254 79.9867 807.254 81.736 807.254 83.016C807.254 84.4667 807.723 85.6613 808.662 86.6C809.601 87.5387 811.179 88.648 813.398 89.928L811.478 93.512C805.761 91.0373 801.281 88.904 798.038 87.112C794.795 85.2347 793.174 83.272 793.174 81.224C793.174 80.0293 793.174 78.408 793.174 76.36C793.259 74.312 793.302 72.2213 793.302 70.088C793.387 67.8693 793.43 66.0773 793.43 64.712C793.43 60.104 790.358 56.904 784.214 55.112C782.849 54.6853 781.355 54.344 779.734 54.088C778.113 53.832 776.79 53.6613 775.766 53.576V70.6C775.766 74.2693 775.638 77.2133 775.382 79.432C775.211 81.5653 775.126 83.2293 775.126 84.424C775.126 85.8747 776.961 87.4533 780.63 89.16L778.966 92.872ZM841.663 94.152C834.324 91.7627 829.034 89.7147 825.791 88.008C822.548 86.216 820.927 84.936 820.927 84.168C820.927 83.2293 821.055 81.608 821.311 79.304C821.652 77 821.823 73.416 821.823 68.552V52.68C821.823 50.9733 821.908 48.968 822.079 46.664C822.25 44.2747 822.506 42.2693 822.847 40.648H818.111L811.455 31.816L812.351 29.768H824.383C824.81 29.768 825.578 30.408 826.687 31.688C827.882 32.8827 829.076 34.2053 830.271 35.656C831.636 33.4373 833.514 31.816 835.903 30.792C838.378 29.768 840.98 29.256 843.711 29.256C845.076 29.256 846.1 29.3413 846.783 29.512L853.183 38.472L852.159 40.008C846.186 39.9227 841.748 41.0747 838.847 43.464C835.946 45.8533 834.495 50.248 834.495 56.648V70.344C834.495 74.6107 834.367 77.9387 834.111 80.328C833.94 82.632 833.855 84.168 833.855 84.936C833.855 85.448 834.026 85.9173 834.367 86.344C834.708 86.6853 835.519 87.112 836.799 87.624C838.164 88.136 840.298 88.9893 843.199 90.184L841.663 94.152ZM880.833 92.36C878.785 92.36 876.31 91.848 873.409 90.824C870.508 89.8 867.692 88.4347 864.961 86.728C862.23 85.0213 859.926 83.0587 858.049 80.84C856.257 78.6213 855.361 76.36 855.361 74.056C855.361 73.032 855.489 70.0453 855.745 65.096C856.086 60.1467 856.257 53.96 856.257 46.536C856.257 40.5627 858.006 36.168 861.505 33.352C865.004 30.536 870.252 29.128 877.249 29.128C879.297 29.128 881.558 29.768 884.033 31.048C886.593 32.328 889.025 33.992 891.329 36.04C893.633 38.088 895.51 40.264 896.961 42.568C898.497 44.7867 899.265 46.8773 899.265 48.84C899.265 52.0827 899.18 55.5813 899.009 59.336C898.924 63.0907 898.881 67.912 898.881 73.8C898.881 79.2613 897.388 83.7413 894.401 87.24C891.414 90.6533 886.892 92.36 880.833 92.36ZM872.641 81.48C877.334 81.48 880.748 80.4987 882.881 78.536C885.1 76.5733 886.209 73.672 886.209 69.832C886.209 67.1013 886.252 64.0293 886.337 60.616C886.422 57.1173 886.508 53.9173 886.593 51.016C886.678 48.0293 886.721 45.9387 886.721 44.744C886.721 43.2933 886.465 42.2267 885.953 41.544C885.441 40.776 884.417 40.392 882.881 40.392C878.273 40.392 874.732 41.2027 872.257 42.824C869.868 44.36 868.673 47.304 868.673 51.656C868.673 59.848 868.588 66.0347 868.417 70.216C868.246 74.312 868.161 77.0853 868.161 78.536C868.161 80.4987 869.654 81.48 872.641 81.48ZM957.888 92.616C955.925 91.848 954.133 91.0373 952.512 90.184C950.891 89.3307 949.355 88.392 947.904 87.368C946.112 88.8187 943.979 90.0133 941.504 90.952C939.029 91.8907 936.725 92.36 934.592 92.36C933.056 92.36 930.965 91.848 928.32 90.824C925.675 89.8 922.987 88.4347 920.256 86.728C917.525 85.0213 915.221 83.1867 913.344 81.224C911.467 79.176 910.528 77.2133 910.528 75.336C910.528 74.056 910.613 72.008 910.784 69.192C911.04 66.2907 911.168 63.0053 911.168 59.336V51.912C911.168 49.6933 911.253 47.6453 911.424 45.768C911.68 43.8053 912.064 42.0987 912.576 40.648H908.352L901.568 31.944L902.464 29.768H918.848L926.272 39.752C925.248 41.1173 924.565 42.824 924.224 44.872C923.968 46.92 923.84 49.5227 923.84 52.68V60.232C923.84 65.864 923.755 69.96 923.584 72.52C923.499 75.08 923.456 76.872 923.456 77.896C923.456 80.2853 924.907 81.48 927.808 81.48C929.941 81.48 931.989 81.096 933.952 80.328C936 79.4747 937.664 78.28 938.944 76.744C940.309 75.1227 940.992 73.2027 940.992 70.984V51.912C940.992 49.6933 941.077 47.6453 941.248 45.768C941.504 43.8053 941.888 42.0987 942.4 40.648H938.176L931.392 31.944L932.288 29.768H948.672L956.096 39.752C955.072 41.1173 954.389 42.824 954.048 44.872C953.792 46.92 953.664 49.5227 953.664 52.68V66.376C953.664 71.0693 953.579 74.6107 953.408 77C953.237 79.3893 953.152 81.1387 953.152 82.248C953.152 83.6133 953.621 84.8507 954.56 85.96C955.584 86.984 957.248 88.0933 959.552 89.288L957.888 92.616ZM1013.6 92.744C1011.64 92.1467 1009.89 91.5067 1008.35 90.824C1006.9 90.1413 1005.28 89.288 1003.49 88.264C1001.78 89.7147 1000.03 90.7813 998.242 91.464C996.535 92.0613 994.359 92.36 991.714 92.36C989.666 92.36 987.191 91.848 984.29 90.824C981.474 89.8 978.658 88.4347 975.842 86.728C973.111 85.0213 970.807 83.0587 968.93 80.84C967.138 78.6213 966.242 76.36 966.242 74.056C966.242 73.1173 966.37 70.4293 966.626 65.992C966.882 61.4693 967.01 54.9413 967.01 46.408C967.01 40.3493 968.674 35.9973 972.002 33.352C975.33 30.7067 979.981 29.384 985.954 29.384C987.746 29.384 989.623 29.7253 991.586 30.408C993.634 31.0907 995.469 31.9013 997.09 32.84C997.175 28.3173 997.389 24.1787 997.73 20.424C998.071 16.6693 998.541 13.5973 999.138 11.208H993.634L986.594 2.88799L987.49 0.839996H1004.13L1011.68 10.568C1011.08 13.896 1010.62 17.6933 1010.27 21.96C1009.93 26.1413 1009.76 30.408 1009.76 34.76V54.088C1009.76 58.2693 1009.68 62.5787 1009.51 67.016C1009.34 71.368 1009.29 76.0187 1009.38 80.968C1009.46 83.528 1009.89 85.2773 1010.66 86.216C1011.43 87.1547 1013.05 88.136 1015.52 89.16L1013.6 92.744ZM979.042 77.512C979.042 78.9627 979.383 79.9867 980.066 80.584C980.834 81.1813 981.986 81.48 983.522 81.48C988.13 81.48 991.543 80.4133 993.762 78.28C995.981 76.1467 997.09 73.16 997.09 69.32V41.16C995.469 40.8187 993.719 40.648 991.842 40.648C988.258 40.648 985.314 41.416 983.01 42.952C980.791 44.488 979.639 47.3893 979.554 51.656L979.042 77.512Z" fill="#FF6900"/>
</svg>
